<svg xmlns="http://www.w3.org/2000/svg" viewBox="0 0 64 64">
  <rect width="64" height="64" rx="10" fill="#ffffff"/>
  <g fill="#111111">
    <rect x="22" y="8" width="4" height="4"/>
    <rect x="28" y="8" width="4" height="4"/>
    <rect x="34" y="8" width="4" height="4"/>
    <rect x="14" y="14" width="4" height="4"/>
    <rect x="20" y="14" width="4" height="4"/>
    <rect x="32" y="14" width="4" height="4"/>
    <rect x="38" y="14" width="4" height="4"/>
    <rect x="44" y="14" width="4" height="4"/>
    <rect x="10" y="20" width="4" height="4"/>
    <rect x="16" y="20" width="4" height="4"/>
    <rect x="22" y="20" width="4" height="4"/>
    <rect x="40" y="20" width="4" height="4"/>
    <rect x="46" y="20" width="4" height="4"/>
    <rect x="52" y="20" width="4" height="4"/>
    <rect x="8" y="26" width="4" height="4"/>
    <rect x="14" y="26" width="4" height="4"/>
    <rect x="20" y="26" width="4" height="4"/>
    <rect x="44" y="26" width="4" height="4"/>
    <rect x="50" y="26" width="4" height="4"/>
    <rect x="56" y="26" width="4" height="4"/>
    <rect x="8" y="32" width="4" height="4"/>
    <rect x="14" y="32" width="4" height="4"/>
    <rect x="50" y="32" width="4" height="4"/>
    <rect x="56" y="32" width="4" height="4"/>
    <rect x="8" y="38" width="4" height="4"/>
    <rect x="14" y="38" width="4" height="4"/>
    <rect x="20" y="38" width="4" height="4"/>
    <rect x="44" y="38" width="4" height="4"/>
    <rect x="50" y="38" width="4" height="4"/>
    <rect x="56" y="38" width="4" height="4"/>
    <rect x="10" y="44" width="4" height="4"/>
    <rect x="16" y="44" width="4" height="4"/>
    <rect x="22" y="44" width="4" height="4"/>
    <rect x="40" y="44" width="4" height="4"/>
    <rect x="46" y="44" width="4" height="4"/>
    <rect x="52" y="44" width="4" height="4"/>
    <rect x="14" y="50" width="4" height="4"/>
    <rect x="20" y="50" width="4" height="4"/>
    <rect x="32" y="50" width="4" height="4"/>
    <rect x="38" y="50" width="4" height="4"/>
    <rect x="44" y="50" width="4" height="4"/>
    <rect x="22" y="56" width="4" height="4"/>
    <rect x="28" y="56" width="4" height="4"/>
    <rect x="34" y="56" width="4" height="4"/>
  </g>
  <g fill="#E63946">
    <rect x="26" y="14" width="4" height="4"/>
    <rect x="28" y="20" width="4" height="4"/>
    <rect x="34" y="20" width="4" height="4"/>
    <rect x="26" y="26" width="4" height="4"/>
    <rect x="32" y="26" width="4" height="4"/>
    <rect x="38" y="26" width="4" height="4"/>
    <rect x="20" y="32" width="4" height="4"/>
    <rect x="26" y="32" width="4" height="4"/>
    <rect x="32" y="32" width="4" height="4"/>
    <rect x="38" y="32" width="4" height="4"/>
    <rect x="44" y="32" width="4" height="4"/>
    <rect x="26" y="38" width="4" height="4"/>
    <rect x="32" y="38" width="4" height="4"/>
    <rect x="38" y="38" width="4" height="4"/>
    <rect x="28" y="44" width="4" height="4"/>
    <rect x="34" y="44" width="4" height="4"/>
    <rect x="26" y="50" width="4" height="4"/>
  </g>
</svg>
